<?xml version="1.0" encoding="UTF-8" standalone="no"?>
<svg
   width="60"
   height="85"
   fill-rule="evenodd"
   version="1.1"
   id="svg46"
   sodipodi:docname="2.svg"
   inkscape:version="1.1.2 (0a00cf5339, 2022-02-04, custom)"
   xmlns:inkscape="http://www.inkscape.org/namespaces/inkscape"
   xmlns:sodipodi="http://sodipodi.sourceforge.net/DTD/sodipodi-0.dtd"
   xmlns="http://www.w3.org/2000/svg"
   xmlns:svg="http://www.w3.org/2000/svg">
  <defs
     id="defs50" />
  <sodipodi:namedview
     id="namedview48"
     pagecolor="#ffffff"
     bordercolor="#666666"
     borderopacity="1.0"
     inkscape:pageshadow="2"
     inkscape:pageopacity="0.0"
     inkscape:pagecheckerboard="0"
     showgrid="false"
     inkscape:zoom="9.6823529"
     inkscape:cx="29.951397"
     inkscape:cy="42.5"
     inkscape:window-width="1271"
     inkscape:window-height="1032"
     inkscape:window-x="-152"
     inkscape:window-y="29"
     inkscape:window-maximized="0"
     inkscape:current-layer="svg46" />
  <rect
     width="60"
     height="85"
     fill="#fff"
     rx="6"
     id="rect2" />
  <g
     fill="#2e1b58"
     id="g18">
    <path
       d="M31.617 78.891c-.573-.369-.65-.46-.573-.678.033-.094.099-.224.145-.289.08-.112.07-.125-.24-.277a3.42 3.42 0 0 1-.604-.402c-.332-.288-.33-.348.028-.874.392-.576.615-.615 1.195-.206l.274.193.143-.184a.94.94 0 0 1 .316-.255c.151-.061.206-.054.44.057.367.174.763.555.763.734 0 .174-.374.751-.614.95-.16.132-.17.157-.097.251.044.057.081.156.082.219.004.221-.603 1.032-.772 1.032-.037 0-.256-.122-.488-.271zm.208-1.62c-.018-.017-.064 0-.102.038-.056.055-.049.062.032.031.056-.021.088-.052.07-.07zm-4.123.617c-.378-.192-1.2-.785-1.273-.918-.044-.08.058-.267.512-.938.577-.853 1.031-1.698 1.264-2.352.071-.2.158-.394.192-.43.047-.05.334-.054 1.182-.016 1.027.046 2.169.008 2.254-.075.019-.019-.029-.236-.108-.483-.109-.343-.128-.468-.079-.533.093-.122 1.807-.507 1.863-.418.11.175.197.816.197 1.451-.001.751-.068 1.122-.299 1.636-.126.282-.17.329-.358.378-.538.142-1.514.236-2.511.242l-1.058.007-.162.393a25.51 25.51 0 0 1-.999 2.029c-.139.22-.228.224-.617.027zm11.399-.744c-.962-.168-1.631-.818-1.836-1.786-.098-.464-.033-1.49.137-2.126.181-.681.486-1.455.572-1.454.037 0 .401.108.809.24l.741.239-.01.194c-.005.107-.078.433-.161.725-.246.863-.145 1.559.254 1.761.334.169.963.081 1.613-.226.254-.12.262-.153.063-.242-.31-.139-.736-.452-.832-.613-.138-.229-.124-.643.033-1.017.354-.844 1.196-1.635 2.227-2.096.396-.176 1.165-.394 1.216-.344.068.066.135 1.225.093 1.6l-.047.418-.542.15c-.654.181-.913.272-.912.32 0 .02.124.105.276.189.328.181.731.592.784.801.021.082.022.295.003.473-.128 1.197-1.269 2.315-2.739 2.684-.53.133-1.322.183-1.742.11zM7.435 75.467l-1.226-.122-.505-.07.011-.364c.01-.31.273-1.723.332-1.782.011-.011.323.027.694.083.516.079 1.002.103 2.071.104 1.532.001 1.875-.051 2.273-.347a1.17 1.17 0 0 0 .406-.729c.001-.121.021-.126.508-.126.574 0 .602.017.652.395.088.662.225.754 1.12.744.52-.005.827-.045 1.457-.187l.847-.225c.026-.025-.102-.101-.285-.171-.254-.096-.493-.132-1.002-.153-.47-.019-.688-.049-.734-.103-.081-.096.068-.946.253-1.446.111-.3.143-.338.323-.378.272-.061.81-.002 1.164.127.161.059.664.339 1.119.622l1.339.776.513.262.018.239c.023.305-.123 1.015-.312 1.514l-.147.389h-.411c-.593 0-.951.079-1.915.423-1.177.42-1.488.485-2.367.492s-1.194-.076-1.591-.418l-.26-.224-.197.148c-.452.338-1.261.514-2.549.552-.483.015-1.202.003-1.599-.025zm12.318.005c-.086-.052-.092-.173-.063-1.218l-.038-2.912v-1.833c.057-.067.236-.08.988-.067l.919.015.037.531c.067.945.123 4.323.08 4.77-.041.429-.045.436-.238.515-.39.16-1.527.293-1.685.198zm3.379-.002l-.442-.079c-.144-.054-.07-.822.161-1.669l.118-.434.872.014.911-.023c.057-.055-.349-.788-.707-1.276-.169-.231-.31-.45-.314-.486-.008-.091 1.454-1.303 1.573-1.304s.239.164.578.782c.722 1.315.944 2.816.574 3.881-.083.24-.11.263-.384.344-.747.219-2.241.346-2.942.25zm28.9.002c-.086-.052-.092-.173-.063-1.218l-.038-2.912v-1.833c.057-.067.236-.08.988-.067l.919.015.037.531c.067.945.123 4.323.08 4.77-.041.429-.045.436-.238.515-.39.16-1.527.293-1.685.198zm-5.693-.062c-.267-.028-.655-.101-.863-.162-.311-.092-.385-.137-.414-.251-.047-.183-.132-2.037-.179-3.904l.032-1.58c.056-.067.246-.083.969-.083h.899l.034.154c.019.085.051.934.072 1.888l.101 1.775c.085.056.387.052.48-.006.042-.026.1-.155.13-.287.192-.838.887-1.573 1.609-1.702.334-.059.793.058 1.087.279.189.141.315.308.473.621.199.394.217.473.236.993.024.663-.074 1.154-.331 1.654-.162.315-.189.339-.471.417a6.76 6.76 0 0 1-.744.141c-.619.081-2.535.114-3.119.053zm3.222-2.232c-.16-.067-.642-.067-.684 0-.022.035.117.055.382.052.286-.003.381-.019.303-.052zm-41.668-.551c-.773-.499-.798-.574-.387-1.177.393-.577.615-.615 1.197-.204l.277.195.147-.189c.081-.104.222-.219.313-.256.144-.059.203-.051.434.059.367.174.763.555.763.734 0 .164-.362.729-.616.963l-.175.161-.274-.156a5.67 5.67 0 0 1-.459-.293l-.185-.137-.262.286c-.144.157-.282.286-.307.286s-.234-.122-.465-.272zm40.207-1.958c-.773-.499-.798-.574-.387-1.177.393-.577.615-.615 1.197-.204l.277.195.147-.189c.081-.104.222-.219.313-.256.144-.059.203-.051.434.059.367.174.763.555.763.734 0 .164-.362.729-.616.963l-.175.161-.274-.156a5.67 5.67 0 0 1-.459-.293l-.185-.137-.262.286c-.144.157-.282.286-.307.286s-.234-.122-.465-.272zm-32.36-.431c-.512-.303-.825-.574-.825-.714.001-.161.286-.644.531-.898.15-.156.24-.203.388-.202.387.001 1.135.565 1.133.855-.001.25-.656 1.159-.835 1.159-.03 0-.207-.09-.392-.199zm35.413-1.007c-.207-.485-.17-.929.103-1.233.356-.398.702-.468 1.497-.306.723.148 1.054.149 1.243.003.313-.241.568-.094.644.372a1 1 0 0 1-.243.806c-.302.352-.65.425-1.437.302-.746-.116-.924-.099-1.02.1-.068.14-.102.154-.388.154-.305 0-.316-.005-.398-.199zm-20.441-7.157v-.308h.342.342v.308.308h-.342-.342zm-3.831-.468l-.014-.413c-.004-.117.029-.129.451-.17.567-.055.887-.222 1.071-.56.119-.218.13-.327.157-1.466l.029-1.231h.371.371l.035.643.043.66c.041.092.538.198 1.045.222l.61.029.175-.171c.172-.168.175-.181.175-.735v-.564h.314.314v.645c0 1.176-.28 1.481-1.363 1.481-.358 0-.584.023-.609.063-.038.061-.406.04-.603-.035-.07-.026-.102.032-.152.274-.2.978-.86 1.529-1.9 1.587l-.506.028zm-20.211-.137c-.017-.043-.023-.227-.013-.408l.017-.329h.428.428v.392.392l-.414.016c-.315.013-.422-.002-.445-.062zm23.529-.346v-.308h.342.342v.308.308h-.342-.342zm.97 0v-.308h.371.371v.308.308h-.371-.371zM5.533 60.003a1.13 1.13 0 0 1-.651-.68c-.037-.132-.061-.927-.061-2.068l.081-1.919c.047-.038.21-.059.385-.049l.304.017.029 1.818.1 1.941c.091.156.413.207 1.098.175.713-.033.741-.064.741-.803 0-.681.021-.71.494-.686l.333.017.018.559c.034 1.028-.193 1.5-.805 1.678-.385.112-1.742.112-2.065 0zm6.587.018c-.286-.08-.552-.296-.697-.567-.11-.206-.126-.324-.128-.962l-.002-.727h.399.399l.029.634c.032.716.058.761.482.823.131.019.82.027 1.53.016 1.137-.017 1.304-.03 1.391-.116.078-.077.106-.231.13-.727l.031-.63h.371.371l.029.615c.016.338.048.645.072.681.1.151.458.202 1.163.165.862-.045 1.183-.141 1.949-.581l.589-.338-.171-.187-.171-.187-1.027-.017c-.727-.012-1.034-.037-1.051-.084-.014-.037-.013-.224.002-.416l.027-.35h1.005c.553 0 1.108.028 1.234.062.44.118.875.701 1.022 1.371l.038.174-.872.504c-1.493.862-1.556.881-2.84.882-.916.001-1.109-.04-1.308-.275-.066-.078-.092-.072-.24.05a1.21 1.21 0 0 1-.378.195c-.271.074-3.108.068-3.377-.007zm10.021.031c-.022-.022-.04-1.077-.04-2.345l.081-2.371c.047-.038.21-.059.385-.049l.304.017v2.377 2.377l-.345.016c-.189.009-.363-.002-.385-.023zm1.766-.333c-.02-.206-.022-.397-.005-.423s.502-.048 1.078-.048c1.051 0 1.315-.037 1.377-.195.068-.175-.054-.357-.777-1.166l-.743-.829.272-.245c.149-.135.31-.246.357-.246.116-.001 1.473 1.548 1.668 1.904.316.576.147 1.193-.398 1.457-.256.124-.344.132-1.532.149l-1.26.018zm11.881.302c-.286-.08-.552-.296-.697-.567-.11-.206-.126-.324-.128-.962l-.002-.727h.399.399l.029.634c.032.716.058.761.482.823.131.019.82.027 1.53.016 1.137-.017 1.304-.03 1.391-.116.078-.077.106-.231.13-.727l.031-.63h.371.371l.029.634c.024.542.044.645.138.713.166.119.435.151 1.057.127.779-.031.801-.053.801-.804 0-.681.021-.71.494-.686l.333.017.018.559c.024.738-.058 1.097-.316 1.377-.302.328-.631.403-1.634.375-.821-.023-1.047-.077-1.23-.293-.066-.078-.092-.072-.24.05a1.21 1.21 0 0 1-.378.195c-.271.074-3.108.068-3.377-.007zm8.925-.018a1.13 1.13 0 0 1-.651-.68c-.037-.132-.061-.927-.061-2.068l.081-1.919c.047-.038.21-.059.385-.049l.304.017.029 1.818.1 1.941c.084.145.455.217.827.162.388-.058.407-.085.447-.631.067-.923.526-1.416 1.32-1.415.409 0 .661.078.909.278.28.227.435.563.477 1.036.053.606.062.627.292.702.284.092.97.041 1.095-.081.073-.072.101-.237.123-.72l.029-.628.333-.017c.474-.024.494.005.494.694 0 .558.005.583.144.672.079.051.151.083.16.071l.448-.665c.691-1.029 1.209-1.419 1.876-1.413 1.227.011 1.837 1.679.938 2.562-.377.37-.612.418-2.04.418-1.284 0-1.608-.045-1.843-.259l-.148-.135-.168.139c-.221.182-.503.255-.992.255-.511 0-.782-.075-.984-.274l-.162-.159-.178.156c-.381.334-1.163.346-1.592.024l-.185-.139-.154.14c-.085.077-.246.165-.36.196-.296.081-1.023.065-1.29-.027zm3.008-.814c.265-.072.329-.185.329-.583 0-.259-.025-.338-.14-.451-.207-.203-.555-.191-.777.026-.139.137-.167.209-.167.44 0 .31.144.547.358.588l.156.031c.016.004.124-.019.242-.051zm6.272 0c.117-.032.251-.113.299-.18.182-.255.064-.855-.195-.991-.226-.119-.551-.068-.811.127-.228.17-.846.939-.846 1.053 0 .069 1.293.062 1.552-.009zm-41.006-1.911c-.097-.095-.088-.63.012-.712.048-.039.225-.059.442-.049l.361.017.017.326c.01.192-.01.359-.05.406-.084.099-.685.108-.783.012zm.982-.009c-.016-.042-.022-.224-.012-.406l.017-.329.361-.017c.217-.01.394.009.442.049.1.081.109.617.012.712s-.782.089-.82-.009zm22.686.009c-.097-.095-.088-.63.012-.712.048-.039.225-.059.442-.049l.361.017.017.326c.01.192-.01.359-.05.406-.084.099-.685.108-.783.012zm.982-.009c-.016-.042-.022-.224-.012-.406l.017-.329.361-.017c.217-.01.394.009.442.049.1.081.109.617.012.712s-.782.089-.82-.009zm4.221-.277c-.017-.043-.023-.227-.013-.408l.017-.329h.428.428v.392.392l-.414.016c-.315.013-.422-.002-.445-.062zm11.235-.559c-.017-.043-.023-.227-.013-.408l.017-.329h.428.428v.392.392l-.414.016c-.315.013-.422-.002-.445-.062zm-34.389-.056c-.017-.043-.023-.227-.013-.408l.017-.329h.428.428v.392.392l-.414.016c-.315.013-.422-.002-.445-.062z"
       id="path4" />
  </g>
  <path
     d="M22.66 48.656c-.571.008-.984-.005-1.3-.04l-.873-.125-.766-.162-.659-.18c-.167-.05-.527-.179-.801-.286l-.981-.437-.766-.411-.639-.412-.745-.551a13.95 13.95 0 0 1-.85-.759l-.792-.841-.622-.8-.52-.792-.445-.816-.371-.81-.285-.768-.251-.873-.193-.91-1.125-9.368-1.104-9.439c-.028-.274-.052-.765-.052-1.09l.053-1.132.124-.948.179-.842.218-.776.269-.751c.088-.225.295-.674.458-.997l.53-.957.496-.73.601-.752.743-.784.797-.707c.215-.173.632-.475.926-.67a13.5 13.5 0 0 1 1.193-.684l1.122-.5.89-.293.944-.227c.35-.07 3.495-.456 9.759-1.195l9.973-1.11c.544-.014.88-.003 1.318.042a16.54 16.54 0 0 1 .98.131l.748.16s.492.13.659.18.527.179.801.287a14.69 14.69 0 0 1 .989.441l.766.411a17.16 17.16 0 0 1 .632.408l.745.551a13.95 13.95 0 0 1 .85.759l.792.841s.462.576.622.8.395.581.52.792a15.88 15.88 0 0 1 .445.816l.371.81a15.09 15.09 0 0 1 .285.768l.251.873s.153.675.193.91.545 4.451 1.125 9.368l1.104 9.439a13.15 13.15 0 0 1 .052 1.09 13.59 13.59 0 0 1-.053 1.132l-.124.948a13.4 13.4 0 0 1-.179.842 16.23 16.23 0 0 1-.218.776 14.8 14.8 0 0 1-.269.751l-.409.908a15.52 15.52 0 0 1-.478.881l-.522.79a14.89 14.89 0 0 1-.626.802c-.184.217-.528.582-.766.813s-.608.561-.823.734-.632.475-.926.67a13.5 13.5 0 0 1-1.193.684 13.79 13.79 0 0 1-1.122.5l-.89.293a14.45 14.45 0 0 1-.944.227c-.35.07-3.5.456-9.759 1.196l-9.243 1.092zm-8.764-12.487l1.596-.045c.019-.024.47-1.192 1.002-2.595l.967-2.587c0-.024-.267-.043-.757-.055l-1.06-.075a7.73 7.73 0 0 1-.707-.185l-.421-.11s-.51 1.273-1.113 2.807l-1.081 2.817c.008.015.717.027 1.575.027zm22.948-.001l10.436-.039a1.76 1.76 0 0 0 .354-.123c.091-.046.216-.134.278-.196a1.31 1.31 0 0 0 .197-.279c.046-.091.102-.262.125-.379.03-.156.038-2.422.03-8.547l-.011-8.335-.081-.201a1.53 1.53 0 0 0-.224-.364c-.085-.097-.232-.206-.364-.271-.121-.059-.307-.124-.413-.144-.126-.024-4.84-.036-13.825-.036H19.712l-.096.24-1.913 4.871-2.062 5.256c-.135.344-.246.645-.246.668s.008.042.019.042.111-.046.223-.103.544-.327.959-.601a17.18 17.18 0 0 1 1.071-.661c.173-.09.443-.205.598-.256a4.22 4.22 0 0 1 .585-.137l.302-.044.973-2.563 1.007-2.597c.022-.022.047-.022.068 0s.428 1.138.91 2.488l.924 2.569c.044.106.067.118.292.157.134.023.364.082.51.131a5.09 5.09 0 0 1 .585.254c.176.091.652.385 1.059.655s.852.547.99.616a1.46 1.46 0 0 0 .305.126c.03 0 .054-.008.054-.017a7.36 7.36 0 0 0-.146-.383c-.08-.201-.191-.495-.245-.651s-.229-.634-.388-1.06-.289-.799-.289-.828c0-.046 1.258-.053 10.503-.053l10.552.059c.041.049.05.819.058 4.633l.009 4.574-.105.105-.105.105h-8.669c-6.881 0-8.681-.009-8.726-.045-.031-.024-.203-.441-.383-.926s-.316-.898-.304-.917 1.263-.035 3.594-.035h3.572l.121-.081a.46.46 0 0 0 .172-.227c.043-.123.043-.164.003-.261-.026-.064-.097-.146-.158-.183-.105-.064-.254-.067-3.875-.067-3.627 0-3.767-.002-3.801-.066-.019-.036-.156-.389-.304-.785s-.269-.742-.269-.771c0-.046.286-.052 2.182-.053 1.674 0 2.202-.011 2.27-.045.048-.024.125-.099.169-.165a.48.48 0 0 0 .081-.213c0-.051-.031-.144-.07-.207-.049-.08-.113-.126-.215-.153s-.673-.036-1.78-.029l-1.635.011-.189.2a2.62 2.62 0 0 1-.349.307 4.68 4.68 0 0 1-.41.233 4.87 4.87 0 0 1-.516.216 6.3 6.3 0 0 1-.626.163 8.75 8.75 0 0 1-.801.112 5.67 5.67 0 0 1-.754.015c-.271-.021-.312-.017-.312.032 0 .031.351 1.023.78 2.203l.915 2.574c.075.235.152.439.173.454s4.649.026 10.285.027zm-1.225-14.033H24.511l-.038-.098-.64-1.704-.603-1.665c0-.055.8-.059 11.747-.059l11.816.051c.067.049.069.108.069 1.688 0 1.56-.003 1.641-.068 1.713l-.068.075zm7.496 11.147c1.576.001 1.973-.008 2.066-.047.063-.027.155-.092.204-.145l.089-.096.009-1.912c.009-1.847.007-1.916-.061-2.026-.039-.063-.119-.139-.178-.17-.095-.049-.351-.055-2.159-.046l-2.051.01-.122.133-.122.133v1.915c0 1.857.002 1.919.072 2.033a.49.49 0 0 0 .187.168c.094.041.472.05 2.066.051zm-26.172-2.615c.63-.012.816-.028 1.178-.105.236-.05.597-.149.801-.22s.501-.189.659-.263.399-.199.536-.279.395-.25.575-.379.336-.234.348-.234.168.105.348.234.438.299.574.379.38.206.543.281.459.193.66.263.566.17.812.223c.412.088.514.096 1.284.097.673.001.9-.012 1.156-.064.176-.036.472-.114.659-.173a4.69 4.69 0 0 0 .607-.246c.147-.076.357-.209.466-.295a1.95 1.95 0 0 0 .345-.375 2.65 2.65 0 0 0 .225-.422c.053-.136.084-.312.095-.529.012-.24.001-.379-.044-.534a2.32 2.32 0 0 0-.154-.382c-.051-.095-.185-.258-.298-.362-.132-.122-.279-.218-.411-.267-.113-.042-.282-.086-.374-.097a1.01 1.01 0 0 0-.339.028c-.118.033-.221.099-.339.217-.094.094-.169.202-.169.244 0 .069.011.065.146-.043s.168-.117.386-.117c.196 0 .263.016.367.088.07.048.169.151.219.228a.89.89 0 0 1 .114.294 1.05 1.05 0 0 1-.021.338c-.031.13-.084.224-.18.32-.076.076-.197.152-.275.173-.098.026-.201.026-.348-.001-.115-.021-.31-.077-.433-.123s-.34-.152-.482-.235-.551-.347-.908-.586-.817-.518-1.021-.618a4.59 4.59 0 0 0-.722-.273c-.313-.081-.399-.089-.813-.073a3.83 3.83 0 0 0-.677.076 3.27 3.27 0 0 0-.408.147c-.107.049-.281.155-.386.237-.135.104-.205.138-.238.114l-.265-.182c-.12-.082-.309-.184-.422-.226a3.48 3.48 0 0 0-.466-.127c-.144-.028-.418-.05-.61-.05-.253 0-.443.024-.694.088-.195.049-.508.167-.717.27-.204.1-.664.378-1.021.618s-.766.504-.908.586-.359.189-.482.235-.318.102-.433.123c-.147.027-.25.028-.348.001-.078-.021-.198-.097-.275-.173-.096-.096-.149-.19-.18-.32a1.05 1.05 0 0 1-.021-.338.89.89 0 0 1 .114-.294c.05-.077.148-.179.219-.228.105-.072.171-.088.367-.088.217 0 .253.011.386.117.126.102.146.108.146.05 0-.037-.064-.141-.143-.231a.7.7 0 0 0-.325-.223c-.122-.041-.243-.054-.364-.041-.1.011-.274.054-.387.096-.125.047-.281.147-.402.257-.109.099-.239.251-.289.337s-.122.254-.159.372c-.041.133-.067.321-.067.491a2.04 2.04 0 0 0 .057.469c.031.106.107.288.168.403s.201.299.312.41a2.62 2.62 0 0 0 .429.335c.125.074.356.184.513.244s.405.14.552.178a8.42 8.42 0 0 0 .588.12c.233.038.525.048 1.069.038zm17.784-.236c1.089.002 1.309-.006 1.397-.052.057-.03.129-.101.159-.159s.054-.159.054-.226-.032-.162-.073-.214a.46.46 0 0 0-.205-.129c-.078-.022-.611-.037-1.307-.037-.674 0-1.23.015-1.304.036s-.156.066-.19.104a.49.49 0 0 0-.082.219c-.014.106-.002.184.042.266a.41.41 0 0 0 .139.153c.048.023.552.038 1.37.039z"
     fill="#37255f"
     id="path20" />
  <path
     d="M22.447 48.63l-.695-.018-.606-.066-.98-.16-.997-.251-.855-.29-.841-.367-.819-.428-.719-.452-.748-.552-.725-.623a12 12 0 0 1-.687-.703l-.578-.684-.528-.743-.528-.873-.446-.908-.372-.946-.286-.962-.2-.959-1.166-9.688-1.091-9.225-.003-.926.061-1.425.172-1.031.232-.944.253-.768.335-.815.425-.855.477-.788.525-.74.645-.767c.208-.231.552-.574.764-.764l.686-.582.658-.476.671-.424.623-.34.649-.299.64-.254.728-.232.962-.23c.37-.074 3.328-.436 9.617-1.176l9.528-1.11c.262-.024.717-.032 1.104-.021l1.104.077.962.162.997.251.855.29.841.367.819.428.719.452.748.552.725.623a12 12 0 0 1 .687.703l.578.684.528.743.528.873.446.908.372.946.286.962.2.959 1.166 9.688 1.091 9.225.003.926-.061 1.425-.172 1.031-.232.944-.253.768-.335.815-.424.855-.514.841-.534.748-.608.714c-.204.226-.544.566-.756.756l-.686.582-.658.476-.671.424-.623.34-.649.299-.64.254-.728.232-.962.23c-.37.074-3.32.435-9.617 1.176l-9.475 1.106c-.215.02-.64.034-.944.031zm-8.573-12.425l1.618-.028c.024-.015.484-1.188 1.023-2.606l.989-2.652c.01-.072-.001-.073-.542-.062-.304.006-.696-.006-.873-.029l-.588-.094c-.147-.03-.424-.107-.616-.172l-.349-.118-.049.076c-.027.042-.539 1.324-1.137 2.85l-1.069 2.805c.011.017.728.031 1.593.031zm23.048-.008l10.547-.076c.098-.037.246-.113.328-.17s.198-.172.255-.256a1.68 1.68 0 0 0 .17-.346c.063-.186.065-.546.065-8.635v-8.442l-.082-.203c-.045-.112-.156-.285-.245-.385a1.42 1.42 0 0 0-.336-.269c-.095-.048-.264-.111-.376-.141-.179-.047-1.871-.053-13.87-.053l-13.7.045c-.019.024-.872 2.184-1.897 4.8l-2.167 5.53c-.167.426-.293.786-.279.8s.148-.037.299-.111a13.75 13.75 0 0 0 .987-.609c.392-.26.849-.545 1.015-.634s.441-.21.61-.268.437-.126.596-.149.304-.061.323-.083.466-1.179.994-2.57l1.004-2.528c.027 0 .405 1.008.943 2.511l.926 2.574c.015.034.062.069.103.077a19.47 19.47 0 0 1 .361.076 3.85 3.85 0 0 1 .559.178c.151.064.381.175.511.248s.55.341.933.595.825.526.983.602.308.139.334.139.046-.023.046-.052-.066-.217-.146-.419a19.03 19.03 0 0 1-.263-.705c-.064-.186-.239-.663-.388-1.061l-.272-.757c0-.022 3.723-.035 10.47-.035h10.47l.055.079c.049.071.055.567.055 4.614v4.535l-.087.087-.087.087H38c-7.202 0-8.677-.008-8.71-.048-.022-.026-.183-.43-.359-.897s-.311-.862-.301-.878 1.616-.03 3.569-.03c3.48 0 3.553-.002 3.667-.071a.69.69 0 0 0 .189-.187.35.35 0 0 0 .056-.255c-.011-.093-.054-.176-.127-.249l-.11-.11-3.807-.009c-3.576-.009-3.808-.013-3.831-.071-.014-.034-.143-.38-.288-.77s-.255-.722-.244-.739.99-.031 2.177-.031c2.101 0 2.161-.002 2.274-.072a.54.54 0 0 0 .173-.192.61.61 0 0 0 .057-.208c0-.048-.037-.142-.081-.208-.052-.077-.133-.138-.222-.167-.11-.036-.51-.044-1.81-.036l-1.67.011-.129.143a3.02 3.02 0 0 1-.29.272 3.23 3.23 0 0 1-.392.255 4.8 4.8 0 0 1-.53.236 6.54 6.54 0 0 1-.748.203c-.389.081-.543.094-1.145.097-.382.002-.705.018-.717.035s-.01.073.005.125a244.29 244.29 0 0 0 .794 2.195l.901 2.529c.074.235.15.448.169.472.027.036 2.104.043 10.403.036zM35.64 22.1c-10.92 0-11.09-.001-11.126-.069-.02-.038-.309-.799-.642-1.691l-.606-1.659c0-.025 3.756-.036 11.735-.036h11.735l.055.084c.048.074.054.285.045 1.669-.008 1.279-.019 1.596-.059 1.643-.045.055-.869.059-11.138.059zm7.484 11.22h1.96l.156-.08c.097-.05.181-.127.221-.204.06-.116.065-.253.065-1.995 0-1.804-.003-1.875-.071-1.987a.67.67 0 0 0-.187-.187c-.112-.068-.183-.071-2.123-.071-1.77 0-2.021.007-2.128.057a.54.54 0 0 0-.192.173c-.07.113-.072.173-.072 2.021v1.905l.081.121a.64.64 0 0 0 .205.183c.114.057.289.062 2.084.062zM25.46 30.734c.276-.008.645-.039.819-.069a7.68 7.68 0 0 0 .584-.127c.147-.04.386-.12.533-.179s.363-.165.481-.237.301-.21.405-.308a2.03 2.03 0 0 0 .316-.405 2.81 2.81 0 0 0 .193-.441 1.79 1.79 0 0 0 .067-.492c0-.176-.026-.361-.07-.504a1.96 1.96 0 0 0-.174-.39c-.057-.09-.174-.231-.26-.313s-.238-.19-.339-.239-.285-.107-.41-.128c-.187-.032-.26-.028-.427.021a.66.66 0 0 0-.365.241c-.098.109-.164.216-.164.267s.009.085.02.085a.94.94 0 0 0 .164-.116c.131-.105.166-.116.386-.116s.256.011.379.111c.075.061.169.165.208.232.051.087.071.186.071.352 0 .157-.022.276-.068.368-.037.075-.132.179-.21.231-.116.077-.18.093-.349.089-.114-.003-.292-.032-.395-.066a4.32 4.32 0 0 1-.467-.2 14.96 14.96 0 0 1-1.033-.64c-.415-.276-.915-.58-1.112-.676a4.58 4.58 0 0 0-.712-.267c-.32-.083-.401-.09-.818-.074-.317.012-.546.042-.725.093-.144.041-.328.108-.41.149s-.231.136-.333.213-.194.138-.204.138-.094-.057-.185-.127-.242-.166-.336-.213-.287-.119-.431-.161c-.179-.051-.408-.081-.724-.093-.417-.016-.498-.009-.818.074-.195.051-.516.17-.712.266s-.694.399-1.105.673-.876.562-1.033.64-.37.17-.474.203-.282.063-.395.066c-.169.004-.233-.013-.349-.089-.078-.052-.173-.156-.21-.231-.046-.092-.068-.212-.068-.368 0-.167.02-.265.071-.352.039-.066.133-.171.208-.232.123-.1.161-.111.379-.111s.256.011.386.116a.94.94 0 0 0 .164.116c.011 0 .02-.038.02-.085s-.066-.158-.164-.267a.66.66 0 0 0-.365-.241c-.167-.049-.24-.052-.427-.021-.124.021-.309.079-.41.128a1.58 1.58 0 0 0-.34.243c-.086.084-.203.225-.259.313a1.96 1.96 0 0 0-.177.403c-.06.195-.071.306-.057.57.011.221.043.394.097.535.044.114.148.307.23.427s.243.295.357.387a3.24 3.24 0 0 0 .443.29c.13.068.375.172.546.232s.483.143.695.186c.266.053.574.083.999.095.376.011.748.002.962-.025a9.07 9.07 0 0 0 .659-.11c.171-.037.483-.125.695-.195a7.9 7.9 0 0 0 .776-.318 7.69 7.69 0 0 0 .766-.441c.206-.138.414-.284.463-.324s.105-.073.125-.073.076.033.125.073.257.186.463.324.55.336.766.439.512.231.659.284.419.133.606.18.499.109.695.139l.481.07a7.22 7.22 0 0 0 .627.001zm9.279-.266c1.299.001 1.304.001 1.424-.08.066-.045.141-.121.165-.169a.54.54 0 0 0 .045-.202c0-.063-.018-.155-.041-.204s-.083-.118-.134-.153c-.083-.056-.217-.064-1.303-.074-.666-.006-1.282-.001-1.369.012-.112.017-.192.057-.276.141-.096.096-.118.146-.118.266 0 .081.024.195.054.252s.098.128.151.157c.081.044.318.053 1.401.054z"
     fill="#8478a3"
     id="path22" />
  <path
     d="M22.465 48.593l-.552-.017-.659-.067-.948-.142-.9-.211-.94-.304c-.269-.1-.761-.315-1.095-.479l-1.015-.554-.873-.604-.896-.742a12.46 12.46 0 0 1-.773-.779l-.541-.634c-.11-.137-.34-.458-.511-.712l-.521-.837-.431-.856-.385-.938c-.091-.25-.228-.699-.304-.996l-.193-.825-.092-.552L9.73 29.01l-1.111-9.694c-.036-.542-.033-.732.02-1.371l.132-1.151.176-.844.251-.881.321-.873.353-.78.363-.67.426-.675.533-.727.621-.727c.181-.197.509-.519.729-.715l.744-.618.682-.483.623-.384.57-.305.625-.287.815-.307.978-.286.823-.177 9.385-1.121 9.581-1.11a8.92 8.92 0 0 1 .997-.02l.962.078.93.143.9.211.94.304c.269.1.761.315 1.095.479l1.015.554.873.604.896.742a12.46 12.46 0 0 1 .773.779l.541.634c.11.137.34.458.511.712l.521.837.431.856.385.938c.091.25.228.699.304.996l.193.825.092.552 1.106 9.332 1.111 9.694c.036.542.033.732-.02 1.371l-.132 1.151-.176.844-.251.881-.321.873-.353.78-.363.67-.426.675-.533.727-.621.727c-.181.197-.509.519-.729.715l-.744.618-.682.483-.623.384-.57.305-.625.287-.815.307-.978.286-.823.177-9.261 1.108-9.492 1.104-.944.045zM13.879 36.24H15.5l.052-.08c.029-.044.495-1.247 1.036-2.674l.973-2.671c-.01-.071.017-.082.346-.139l.677-.153.57-.184a8.32 8.32 0 0 0 .626-.281 7.96 7.96 0 0 0 .761-.449l.445-.306c.052-.038.085-.027.22.076l.46.317a7.97 7.97 0 0 0 .657.373l.606.27.572.185a7.73 7.73 0 0 0 .695.154c.341.057.373.069.384.145.007.046.377 1.087.823 2.314l.942 2.649c.108.347.144.421.21.437.043.011 4.735.015 10.426.009l10.347-.01.213-.086c.145-.059.277-.149.413-.285s.227-.267.285-.413l.086-.213.011-8.353-.03-8.566c-.022-.118-.09-.307-.15-.421s-.175-.263-.254-.33a1.74 1.74 0 0 0-.323-.208c-.099-.047-.276-.103-.393-.125-.158-.03-3.794-.038-13.873-.03l-13.66.01-2.169 5.521-2.178 5.66c-.005.076-.032.152-.06.167s-.154.045-.28.066c-.208.034-.244.03-.389-.043-.088-.044-.196-.133-.239-.198s-.089-.191-.103-.28c-.015-.097-.007-.22.02-.309.024-.081.077-.194.117-.25s.138-.132.219-.168a.86.86 0 0 1 .292-.067c.1-.001.184.027.267.087.067.049.158.108.204.132.067.035.089.034.115-.008.018-.028.033-.062.033-.074s-.052-.1-.115-.195-.192-.219-.291-.28c-.158-.097-.204-.108-.466-.107a.93.93 0 0 0-.561.134c-.186.092-.323.192-.439.32a2.28 2.28 0 0 0-.296.454c-.117.244-.129.299-.141.643-.011.328-.002.408.074.627a2.42 2.42 0 0 0 .22.451 2.62 2.62 0 0 0 .336.388c.112.104.307.243.434.31s.25.136.274.155c.033.026.028.048-.025.093-.041.035-.517 1.2-1.177 2.886l-1.089 2.876c.016.041.297.049 1.64.049zm24.102-1.46c-4.76 0-8.662-.012-8.672-.027s-.154-.394-.323-.842-.306-.837-.306-.863c0-.04.592-.048 3.527-.048l3.646-.049c.065-.027.154-.1.198-.162a.66.66 0 0 0 .098-.248c.012-.087-.003-.175-.04-.247-.032-.062-.101-.141-.154-.175-.089-.059-.346-.064-3.885-.08l-3.789-.018-.277-.738c-.152-.406-.268-.746-.258-.757s.982-.019 2.159-.019c2.058 0 2.144-.003 2.254-.07.063-.038.139-.109.171-.156a.65.65 0 0 0 .077-.211.44.44 0 0 0-.044-.258c-.046-.097-.106-.153-.217-.202-.146-.064-.245-.067-1.864-.058-.94.006-1.71.004-1.71-.004a1.29 1.29 0 0 1 .086-.162 2.41 2.41 0 0 0 .16-.367c.053-.159.074-.31.074-.543a1.59 1.59 0 0 0-.073-.54 2.18 2.18 0 0 0-.19-.4 1.89 1.89 0 0 0-.27-.32 1.92 1.92 0 0 0-.389-.248c-.202-.095-.277-.111-.524-.112-.258-.001-.306.01-.463.107a1.04 1.04 0 0 0-.3.296c-.101.153-.129.176-.148.124l-.353-.955-.346-.935c-.013-.036 2.09-.045 10.44-.045l10.493.069c.025.046.037 1.538.037 4.579v4.51l-.087.087-.087.087zm5.203-1.434c1.986-.008 2.02-.01 2.119-.083a.96.96 0 0 0 .182-.194l.081-.119-.01-1.926-.01-1.926-.079-.111a.62.62 0 0 0-.201-.169c-.108-.051-.352-.058-2.147-.058-1.958 0-2.029.003-2.141.071a.67.67 0 0 0-.187.187c-.068.112-.071.183-.071 2.035 0 1.903 0 1.92.077 2.043a.57.57 0 0 0 .223.191c.138.063.257.066 2.165.058zm-8.484-2.84c1.144 0 1.342-.008 1.446-.057a.54.54 0 0 0 .192-.173c.044-.072.072-.178.072-.278 0-.122-.023-.189-.092-.271-.05-.06-.151-.126-.223-.148-.087-.026-.565-.035-1.413-.027-1.19.01-1.289.016-1.382.079-.055.037-.123.113-.151.167s-.052.175-.052.266c0 .146.017.183.138.305l.138.138zm-7.337-1.876c-.049.009-.164.004-.256-.012s-.185-.04-.207-.053c-.028-.017-.028-.037-.001-.07s.008-.132-.073-.362c-.061-.174-.134-.359-.161-.412s-.049-.109-.049-.126.044-.049.098-.073.152-.083.219-.132a.42.42 0 0 1 .267-.089.86.86 0 0 1 .292.067c.08.036.179.112.219.168s.093.169.117.25c.027.089.035.212.02.309-.013.089-.059.214-.103.278s-.127.144-.185.178-.147.069-.196.079zm-6.328-1.331c-.016-.001-.094-.058-.172-.127a1.93 1.93 0 0 0-.369-.234c-.125-.059-.373-.138-.552-.175s-.423-.067-.543-.068-.226-.01-.237-.021.009-.072.044-.134.486-1.223 1-2.579l.958-2.467c.013 0 .429 1.138.925 2.528l.95 2.569c.027.022.049.055.049.072s-.14.031-.312.032-.458.031-.638.068a2.94 2.94 0 0 0-.552.175 2.06 2.06 0 0 0-.374.235c-.081.07-.162.126-.178.125zm14.593-5.234H24.556l-.614-1.647-.631-1.692c-.013-.036 2.342-.045 11.704-.045l11.758.069c.024.044.037.617.037 1.613 0 1.34-.007 1.554-.055 1.623l-.055.079z"
     fill="#4b3484"
     id="path28" />
  <path
     d="M30.443 45.522c-6.431.004-11.125-.008-11.291-.026-.157-.018-.477-.071-.712-.119s-.572-.128-.748-.179-.505-.165-.73-.254-.59-.256-.811-.371-.558-.312-.749-.438a10.23 10.23 0 0 1-.649-.472 11.54 11.54 0 0 1-.618-.547c-.174-.167-.444-.456-.599-.642s-.392-.499-.525-.695-.323-.5-.422-.677a9.11 9.11 0 0 1-.327-.656c-.081-.185-.208-.513-.283-.73a9.95 9.95 0 0 1-.228-.787 12.92 12.92 0 0 1-.156-.801c-.06-.387-.064-1.006-.064-11.434l.064-11.434a12.92 12.92 0 0 1 .156-.801c.051-.215.154-.572.23-.793s.211-.563.3-.762.236-.491.325-.65a11.42 11.42 0 0 1 .405-.645c.133-.196.369-.508.525-.695s.425-.475.599-.641.442-.405.596-.53a10.73 10.73 0 0 1 .677-.492c.219-.145.622-.374.896-.509s.659-.304.855-.376a9.79 9.79 0 0 1 .819-.249c.255-.064.639-.146.855-.183.375-.063.87-.066 11.451-.066l11.451.066a13.14 13.14 0 0 1 .855.183c.255.064.623.176.819.249s.581.242.855.376.677.363.896.509a10.73 10.73 0 0 1 .677.492c.154.125.422.364.596.53s.444.455.599.641.392.499.525.695.323.5.422.677a9.11 9.11 0 0 1 .327.656c.081.185.208.513.283.73s.177.571.228.787a12.92 12.92 0 0 1 .156.801c.06.387.064 1.006.064 11.434l-.064 11.434a12.92 12.92 0 0 1-.156.801 9.95 9.95 0 0 1-.228.787c-.075.217-.202.546-.283.73a9.11 9.11 0 0 1-.327.656c-.099.176-.289.481-.422.677s-.369.508-.525.695-.425.475-.599.641a11.99 11.99 0 0 1-.596.53 10.73 10.73 0 0 1-.677.492c-.219.145-.622.374-.896.509s-.658.303-.853.375a9.76 9.76 0 0 1-.748.233 15.58 15.58 0 0 1-.803.182l-.41.079zM13.879 36.24H15.5l.052-.08c.029-.044.495-1.247 1.036-2.674l.973-2.671c-.01-.071.017-.082.346-.139.196-.034.5-.103.677-.153a8.97 8.97 0 0 0 .57-.184 8.32 8.32 0 0 0 .626-.281 7.96 7.96 0 0 0 .761-.449l.445-.306c.052-.038.085-.027.22.076.087.067.294.209.46.317a7.97 7.97 0 0 0 .657.373c.196.097.468.219.606.27s.395.134.572.185a7.73 7.73 0 0 0 .695.154c.341.057.373.069.384.145.007.046.377 1.087.823 2.314l.942 2.649c.108.347.144.421.21.437.043.011 4.735.015 10.426.009l10.347-.01.213-.086c.145-.059.277-.149.413-.285s.227-.267.285-.413l.086-.213.011-8.353-.03-8.566c-.022-.118-.09-.307-.15-.421s-.175-.263-.254-.33a1.74 1.74 0 0 0-.323-.208c-.099-.047-.276-.103-.393-.125-.158-.03-3.794-.038-13.873-.03l-13.66.01-2.169 5.521-2.178 5.66c-.005.076-.032.152-.06.167s-.154.045-.28.066c-.208.034-.244.03-.389-.043-.088-.044-.196-.133-.239-.198s-.089-.191-.103-.28c-.015-.097-.007-.22.02-.309.024-.081.077-.194.117-.25s.138-.132.219-.168a.86.86 0 0 1 .292-.067c.1-.001.184.027.267.087.067.049.158.108.204.132.067.035.089.034.115-.008.018-.028.033-.062.033-.074s-.052-.1-.115-.195-.192-.219-.291-.28c-.158-.097-.204-.108-.466-.107a.93.93 0 0 0-.561.134c-.186.092-.323.192-.439.32a2.28 2.28 0 0 0-.296.454c-.117.244-.129.299-.141.643-.011.328-.002.408.074.627a2.42 2.42 0 0 0 .22.451 2.62 2.62 0 0 0 .336.388c.112.104.307.243.434.31s.25.136.274.155c.033.026.028.048-.025.093-.041.035-.517 1.2-1.177 2.886l-1.089 2.876c.016.041.297.049 1.64.049zm24.102-1.46c-4.76 0-8.662-.012-8.672-.027s-.154-.394-.323-.842-.306-.837-.306-.863c0-.04.592-.048 3.527-.048l3.646-.049c.065-.027.154-.1.198-.162a.66.66 0 0 0 .098-.248c.012-.087-.003-.175-.04-.247-.032-.062-.101-.141-.154-.175-.089-.059-.346-.064-3.885-.08l-3.789-.018-.277-.738c-.152-.406-.268-.746-.258-.757s.982-.019 2.159-.019c2.058 0 2.144-.003 2.254-.07.063-.038.139-.109.171-.156a.65.65 0 0 0 .077-.211.44.44 0 0 0-.044-.258c-.046-.097-.106-.153-.217-.202-.146-.064-.245-.067-1.864-.058-.94.006-1.71.004-1.71-.004a1.29 1.29 0 0 1 .086-.162 2.41 2.41 0 0 0 .16-.367c.053-.159.074-.31.074-.543a1.59 1.59 0 0 0-.073-.54 2.18 2.18 0 0 0-.19-.4 1.89 1.89 0 0 0-.27-.32 1.92 1.92 0 0 0-.389-.248c-.202-.095-.277-.111-.524-.112-.258-.001-.306.01-.463.107a1.04 1.04 0 0 0-.3.296c-.101.153-.129.176-.148.124l-.353-.955-.346-.935c-.013-.036 2.09-.045 10.44-.045l10.493.069c.025.046.037 1.538.037 4.579v4.51l-.087.087-.087.087zm5.203-1.434c1.986-.008 2.02-.01 2.119-.083a.96.96 0 0 0 .182-.194l.081-.119-.01-1.926-.01-1.926-.079-.111a.62.62 0 0 0-.201-.169c-.108-.051-.352-.058-2.147-.058-1.958 0-2.029.003-2.141.071a.67.67 0 0 0-.187.187c-.068.112-.071.183-.071 2.035 0 1.903 0 1.92.077 2.043a.57.57 0 0 0 .223.191c.138.063.257.066 2.165.058zm-8.484-2.84c1.144 0 1.342-.008 1.446-.057a.54.54 0 0 0 .192-.173c.044-.072.072-.178.072-.278 0-.122-.023-.189-.092-.271-.05-.06-.151-.126-.223-.148-.087-.026-.565-.035-1.413-.027-1.19.01-1.289.016-1.382.079-.055.037-.123.113-.151.167s-.052.175-.052.266c0 .146.017.183.138.305l.138.138zm-7.337-1.876c-.049.009-.164.004-.256-.012s-.185-.04-.207-.053c-.028-.017-.028-.037-.001-.07s.008-.132-.073-.362c-.061-.174-.134-.359-.161-.412s-.049-.109-.049-.126.044-.049.098-.073.152-.083.219-.132a.42.42 0 0 1 .267-.089.86.86 0 0 1 .292.067c.08.036.179.112.219.168s.093.169.117.25c.027.089.035.212.02.309-.013.089-.059.214-.103.278s-.127.144-.185.178-.147.069-.196.079zm-6.328-1.331c-.016-.001-.094-.058-.172-.127a1.93 1.93 0 0 0-.369-.234c-.125-.059-.373-.138-.552-.175s-.423-.067-.543-.068-.226-.01-.237-.021.009-.072.044-.134.486-1.223 1-2.579l.958-2.467c.013 0 .429 1.138.925 2.528l.95 2.569c.027.022.049.055.049.072s-.14.031-.312.032-.458.031-.638.068a2.94 2.94 0 0 0-.552.175 2.06 2.06 0 0 0-.374.235c-.081.07-.162.126-.178.125zm14.593-5.234H24.556l-.614-1.647-.631-1.692c-.013-.036 2.342-.045 11.704-.045l11.758.069c.024.044.037.617.037 1.613 0 1.34-.007 1.554-.055 1.623l-.055.079z"
     fill="#2e1b58"
     id="path30" />
  <g
     fill="#fff"
     stroke="#fff"
     id="g44">
    <g
       stroke-width=".347"
       stroke-miterlimit="5.3"
       id="g38">
      <path
         d="M26.409 35.63l-.902-2.554-.74-2.095c.006.019.161-.073.664-.035.364.027.969-.073 1.342-.162l.823-.2c.044-.002.149.371.312.786l.296.753 3.834.025 3.926.197c.066.124.052.23-.05.376-.141.202-.162.203-3.768.203H28.52l.063.212c.035.117.196.551.359.965l.296.753 8.698.024 8.826-.082c.105-.087.128-.951.128-4.745l-.149-4.696c-.217-.083-21.033-.07-21.034.013 0 .15.819 2.333.988 2.668.098.194.769 2.454.722 2.454s-1.317-2.585-1.908-2.965c-1.01-.651-1.774-1.003-2.178-1.003-.213 0-.227-.032-1.256-2.891l-.855-2.309c-.037-.059-.087-.046-.132.034-.063.112-1.175 2.997-1.784 4.625-.184.491-.228.541-.48.541-.498 0-1.475.49-2.506 1.172-.556.368-3.753 8.265-1.008.556.021-.059 1.175-2.663 2.327-5.589l2.094-5.319 13.69-.024 14.088.169c.743.36.698-.232.698 9.284 0 8.318-.004 8.464-.19 8.77-.374.613.202.583-11.143.583H26.571zm20.46-15.24l.026-1.754-.214-.057c-.345-.092-23.403-.069-23.461.023-.041.067.541 1.74 1.159 3.33l.101.259 11.182-.024 11.182-.024z"
         paint-order="stroke fill markers"
         id="path32" />
      <path
         d="M15.843 30.571c-1.659-.255-2.683-1.209-2.514-2.34.051-.34.153-.522.467-.837.342-.342.46-.402.786-.402.211 0 .393.057.442.094.996.762-.048.094-.187.094-.362 0-.707.39-.707.8 0 .359.333.8.604.8.33 0 1.077-.333 1.82-.813 1.122-.724 1.608-.963 2.22-1.091.653-.137 1.371-.012 1.919.334.364.23.37.23.597.054.306-.237 1.063-.461 1.561-.461.572 0 1.294.297 2.308.949 1.57 1.01 2.264 1.21 2.63.757.419-.518.059-1.327-.594-1.333-.269-.003-1.003.761-.178-.064.259-.259.95-.071 1.311.289.279.279.336.41.373.85.057.69-.015.934-.404 1.365-.468.518-1.275.851-2.33.96-1.633.169-3.086-.205-4.464-1.15-.216-.148-.421-.27-.454-.27s-.237.121-.454.27c-.577.395-1.253.719-1.947.932-.711.218-2.088.322-2.806.212z"
         paint-order="stroke fill markers"
         id="path34" />
      <path
         d="M12.462 35.933c.027-.105.505-1.351 1.062-2.769 1.005-2.56 1-2.522 1.244-2.49l1.51.168 1.131.008-.472 1.354-.984 2.578-.524 1.342h-1.508c-1.468 0-1.507-.005-1.459-.191z"
         paint-order="stroke fill markers"
         id="path36" />
    </g>
    <path
       d="M40.979 33.092c-.16-.16-.16-3.945 0-4.105.081-.081.692-.113 2.154-.113 1.787 0 2.057.019 2.17.156.1.121.129.577.129 2.01s-.029 1.889-.129 2.009c-.113.136-.387.156-2.17.156-1.462 0-2.073-.032-2.154-.113z"
       fill-rule="nonzero"
       stroke-width=".441"
       id="path40" />
    <path
       d="M33.277 30.245c-.102-.266.013-.475.294-.535.364-.078 1.987-.078 2.351 0 .308.066.416.313.233.534-.166.2-2.802.201-2.879.001zm-5.167.026c.118-.001-.408-.356-.287-.492.214-.24.948-.106 2.234-.138 1.977-.049 2.409.063 2.145.557-.092.171-.218.181-2.189.179-1.578-.002-9.339-.064-1.903-.107z"
       paint-order="stroke fill markers"
       stroke-width=".347"
       stroke-miterlimit="5.3"
       id="path42" />
  </g>
</svg>
